# xmcd CD database file
#
# Track frame offsets:
#	182
#	13802
#	33877
#	44980
#	60195
#	77735
#	98635
#	123310
#	136287
#	171805
#	195000
#	204810
#	221942
#	236905
#	264460
#	283707
#
# Disc length: 4102 seconds
#
# Revision: 2
# Processed by: cddbd v1.5.2PL0 Copyright (c) Steve Scherf et al.
# Submitted via: CDex 1.70beta2
#
DISCID=dd100410
DTITLE=Climax Blues Band - The Harvest Years
DYEAR=1972
DGENRE=Rock
TTITLE0=Please Don't Help Me
TTITLE1=Hey Baby, Everything's Gonna Be Allright Yeh Yeh Yeh
TTITLE2=Everyday
TTITLE3=Towards the Sun
TTITLE4=You Make Me Sick
TTITLE5=Reap What I've Sowed
TTITLE6=Shake Your Love
TTITLE7=Looking for My Baby
TTITLE8=Flight
TTITLE9=Mole on the Dole
TTITLE10=That's All
TTITLE11=Insurance
TTITLE12=Wee Baby Blues
TTITLE13=Crazy 'Bout My Baby
TTITLE14=All Right Blue?
TTITLE15=Cut You Loose
EXTD=YEAR: 1972
EXTT0=
EXTT1=
EXTT2=
EXTT3=
EXTT4=
EXTT5=
EXTT6=
EXTT7=
EXTT8=
EXTT9=
EXTT10=
EXTT11=
EXTT12=
EXTT13=
EXTT14=
EXTT15=
PLAYORDER=
